<svg xmlns="http://www.w3.org/2000/svg" version="1.1" xmlns:xlink="http://www.w3.org/1999/xlink" xmlns:svgjs="http://svgjs.dev/svgjs" width="1000" height="1125" viewBox="0 0 1000 1125"><g transform="matrix(1,0,0,1,1.7053025658242404e-13,0)"><svg viewBox="0 0 320 360" data-background-color="#ffffff" preserveAspectRatio="xMidYMid meet" height="1125" width="1000" xmlns="http://www.w3.org/2000/svg" xmlns:xlink="http://www.w3.org/1999/xlink"><g id="tight-bounds" transform="matrix(1,0,0,1,0,0)"><svg viewBox="0 0 320 360" height="360" width="320"><g><svg></svg></g><g><svg viewBox="0 0 320 360" height="360" width="320"><g><path xmlns="http://www.w3.org/2000/svg" d="M20.961 227.22l3.726 4.658-1.863-6.056c-0.466-2.795-3.726 0.466-1.863 1.398M25.153 224.425c1.397 2.329 2.795 4.658 2.795 6.987 0 3.261 2.795 4.658 5.123 5.589-3.261-3.726-5.124-13.974-7.918-12.576M204.017 26.929c7.918 0 15.371-0.932 23.756 0.931 20.495 5.124 37.729 15.371 49.374 29.811l32.606 52.169c1.397 13.042 4.192 27.482 3.726 43.319 3.261 0 2.795-4.658 6.521-5.59-3.726 9.316-5.59 20.961-6.521 34.469-2.329-7.453 0-18.632 0.466-24.687-3.261 5.124-5.124 1.397-5.124-0.932 0.466-3.726-1.397-3.261-2.795-4.658-5.124-4.658-8.384-9.782-12.11-17.7 2.329-6.055 2.795-14.905-4.658-19.563-2.329-1.397-5.124-3.726-6.521-7.453-1.863-5.124-5.124-11.179-4.193-19.097 0.466-2.329-6.987 5.124-11.179 1.863-18.166-12.576-36.332-27.016-58.224-39.127-11.645 0-20.029-4.192-24.221-9.316-3.726-4.658-0.932-10.713 4.658-11.179 3.261 0 6.987-0.932 9.782 0.932 0.466-1.863 2.329-4.192 4.657-4.192M157.904 16.215l0.932 0.466c4.658 0.932 6.987 7.453 12.11 5.124 0 3.261 0.466 6.521-0.466 8.85-1.397 3.726-5.59 3.726-8.85 3.726-31.208-1.863-49.374 11.179-68.471 22.358-5.124 3.261-10.713 5.59-14.906 9.782-20.029 18.632-41.921 35.866-47.045 70.335l-4.192 38.195c-0.466 4.192-5.124 8.384-4.192 13.508l3.26 22.824c-3.261-3.261-5.124 0.932-4.192 2.795 0.466 1.397 2.329 6.055 5.124 1.863 3.726 6.987 7.453 20.495 12.576 26.55 15.837 18.632 36.332 35.4 53.101 52.169 4.192-0.932 7.453-0.932 8.384-3.727 1.397 2.795-1.397 5.59-3.726 6.056 7.453 4.658 15.837 8.85 27.016 9.781 14.44 0.932 27.948 3.261 40.524 6.522 6.521-1.863 13.042-2.795 20.029-3.261 2.329 0 3.726-3.726 6.521-4.658l0.466-4.658c2.795 4.192 2.329-1.397 0.466-4.192 3.261 2.795 4.192 5.124 5.589 6.987 0-1.397 3.726-6.521 3.727-0.466l0.931-6.055c1.397-0.932 1.863 5.124 3.261 0.931 1.397-4.192 4.192-0.932 6.987-2.329-0.932 1.863-0.466 5.59 2.794 3.261l3.727-3.261c2.329 5.59 6.055 3.261 7.918 2.329 20.495-13.042 40.99-28.413 60.553-43.784l-0.466 6.055 2.329-7.453c2.329 2.329 4.192 0.466 5.124-0.931 2.795-4.658 6.521-9.316 12.577-13.508-7.453 20.029-16.303 35.866-27.482 48.908l-4.658 5.59c0 3.261-0.932 7.453-4.658 7.918-1.863 0.466-5.59-0.932-8.384 1.863-1.397 1.863 3.261 5.59-0.466 2.795-3.261-2.329-6.521 0-10.248 0.932-2.795 0.932 1.863 3.726 2.795 5.589 0.932 1.863 1.863 3.726 1.398 6.056l-5.124-5.59c-6.055 3.261-9.782 9.316-14.906 13.974-2.329 1.863-1.397 5.124-1.397 7.918-3.261 0-6.987-0.932-8.85 0.932-1.397 1.863-0.932 4.658-0.932 7.453-4.658-0.466-5.124-7.453-9.315-6.056-4.192 0.932-8.85 1.397-12.577 3.727 2.795 5.59-4.658 2.329-3.726 3.26-6.987-4.192-13.042-7.453-20.495-4.658-15.837-5.124-35.4-2.795-49.84-0.931 0-2.329 0.466-4.658-0.466-5.124-0.932 2.329-3.726 1.397-3.26 1.397-8.85-6.055-17.7-9.782-27.016-14.905-8.384 0.932-16.303-3.261-18.632-5.59-6.521-6.055-13.974-2.795-20.029-4.192-13.042-3.261-17.7-16.769-19.098-26.084-0.932-4.658-4.658-6.521-6.055-6.056-6.055-19.563-15.371-37.263-22.824-55.429-1.863-4.658-1.397-9.316-1.397-14.44 2.329 0.932 4.658 0.466 4.192-2.794-2.329-15.371-7.918-27.016-13.974-38.195 3.261-15.837 3.726-34.469 11.179-48.443 6.521-12.576 18.632-19.098 27.016-29.811 2.795-3.726 2.795-8.85 5.59-12.11 9.316-9.316 18.632-19.098 28.879-27.482 4.658-3.726 10.247 0 17.234-1.397 2.329-8.384 11.645-15.837 20.495-13.508 3.726 0.932 11.179-8.85 13.508-9.782 3.726-1.397 1.863 3.726 1.863 6.987 8.85-6.987 20.961-10.713 32.14-14.906" fill="#ffffff" fill-rule="nonzero" stroke="none" stroke-width="1" stroke-linecap="butt" stroke-linejoin="miter" stroke-miterlimit="10" stroke-dasharray="" stroke-dashoffset="0" font-family="none" font-weight="none" font-size="none" text-anchor="none" style="mix-blend-mode: normal" data-fill-palette-color="tertiary"></path></g><g transform="matrix(1,0,0,1,64,121.21673698750172)"><svg viewBox="0 0 192 117.56652602499656" height="117.56652602499656" width="192"><g><svg viewBox="0 0 192 117.56652602499656" height="117.56652602499656" width="192"><g><svg viewBox="0 0 192 117.56652602499656" height="117.56652602499656" width="192"><g><svg viewBox="0 0 192 117.56652602499656" height="117.56652602499656" width="192"><g id="textblocktransform"><svg viewBox="0 0 192 117.56652602499656" height="117.56652602499656" width="192" id="textblock"><g><svg viewBox="0 0 192 82.16905901116426" height="82.16905901116426" width="192"><g transform="matrix(1,0,0,1,0,0)"><svg width="192" viewBox="2.5 -35.20000076293945 94.04000091552734 40.25" height="82.16905901116426" data-palette-color="#000000"><path d="M3.85-23.65Q3.05-25.75 2.78-26.65 2.5-27.55 2.5-28.45L2.5-28.45Q2.5-29.1 2.68-30.15 2.85-31.2 3.15-32.5L3.15-32.5 4.1-32.55Q4.45-32.55 4.7-32.4L4.7-32.4 5.55-31.75Q7.05-30.5 7.8-29.65 8.55-28.8 8.85-27.3L8.85-27.3Q9.5-24.25 10.38-21.9 11.25-19.55 12.9-17.65L12.9-17.65Q14.1-16.25 15.03-15.58 15.95-14.9 17.5-14.95L17.5-14.95Q18.25-16.45 18.6-17.25L18.6-17.25 19.95-20.55Q23.65-29.55 24.6-31.7L24.6-31.7Q25-32.65 26.05-34.1L26.05-34.1Q26.3-34.4 26.7-35L26.7-35Q28.35-34.35 29.23-33.08 30.1-31.8 30.1-30.15L30.1-30.15Q30.1-29.05 29.75-28.05L29.75-28.05Q28.9-25.6 26.95-21.55L26.95-21.55Q26.6-20.8 26.28-20.2 25.95-19.6 25.7-19.1L25.7-19.1Q24.6-17 24.4-16.6L24.4-16.6 23.05-13.6Q21.5-9.9 20.2-7.75L20.2-7.75 19.5-6.65Q17-2.55 15.13 0.08 13.25 2.7 10.65 5.05L10.65 5.05Q10.55 4.7 10.33 4.23 10.1 3.75 10.15 3.55L10.15 3.55Q11.75-0.5 15.05-8.6L15.05-8.6Q15.3-9.25 16-11.4L16-11.4Q6.95-15.2 3.85-23.65L3.85-23.65ZM37.3-21Q38.55-20.65 39.07-20.15 39.6-19.65 39.6-18.8L39.6-18.8Q39.6-18.4 39.45-17.75L39.45-17.75Q38.9-15.5 38.85-13.25L38.85-13.25Q38.8-10.7 39.65-8.55L39.65-8.55Q39.95-7.8 40.22-7.48 40.5-7.15 40.9-7.15L40.9-7.15Q41.4-7.15 42.2-8.05L42.2-8.05Q44.05-10.25 44.95-12.45 45.85-14.65 46.05-17L46.05-17Q46.2-18.55 46.55-18.95L46.55-18.95Q46.75-19.15 47.2-19.2 47.65-19.25 48.5-19.25L48.5-19.25Q49.85-19.15 50.37-19 50.9-18.85 51.1-18.5 51.3-18.15 51.3-17.35L51.3-17.35 51.25-15Q51.25-14.25 51.2-12.8L51.2-12.8Q51.05-8.3 50.95-6.1L50.95-6.1Q50.9-4.35 49.9-1.7L49.9-1.7Q49.8-1.55 49.35-1.28 48.9-1 48.55-0.95L48.55-0.95Q48.45-0.95 48.12-1.28 47.8-1.6 47.65-1.85L47.65-1.85Q47.3-2.65 46.85-4L46.85-4 46.45-4.95 46.35-5.25 46.2-5.1 45.4-4.6Q44.8-4.1 44.1-3.8L44.1-3.8Q42.95-3.1 41.35-3.1L41.35-3.1Q39.35-3.1 37.55-4.23 35.75-5.35 34.7-7.3L34.7-7.3Q33-10.3 33-14.25L33-14.25Q33-16.25 33.55-19.3L33.55-19.3Q33.65-20.05 34.5-20.6L34.5-20.6Q35.25-21.15 36.25-21.15L36.25-21.15Q36.75-21.15 37.3-21L37.3-21ZM62.8-22.45Q62.8-22.2 62.67-21.28 62.55-20.35 62.55-19.8L62.55-19.8Q62.55-19.4 62.65-19.3L62.65-19.3 64.09-20.7Q64.9-21.6 65.5-22.1L65.5-22.1Q66.8-23.3 68.15-23.3L68.15-23.3Q69.25-23.3 69.8-22.45L69.8-22.45Q70.09-21.95 70.09-21.3L70.09-21.3Q70.09-20.8 69.9-20.55L69.9-20.55Q69.15-19.4 67.2-17.1L67.2-17.1Q66.45-16.3 66.45-15.55L66.45-15.55Q66.45-14.85 67.15-14L67.15-14Q67.75-13.3 68.84-11.9L68.84-11.9Q71-9.15 72.67-7.48 74.34-5.8 76.55-4.7L76.55-4.7Q76.8-4.6 76.95-4.23 77.09-3.85 77.05-3.65L77.05-3.65Q77-3.4 76.65-3.15 76.3-2.9 76.05-2.95L76.05-2.95Q75.3-3.15 74.8-3.2L74.8-3.2Q72.2-3.7 71.09-4.45L71.09-4.45Q69.3-5.7 66-8.8L66-8.8Q64-10.65 63.95-10.7L63.95-10.7 63.05-11.55Q62-12.6 62-12.6L62-12.6Q61.9-12.35 61.9-11.85L61.9-11.85Q61.9-11.4 61.97-10.88 62.05-10.35 62-10.15L62-10.15Q61.7-4.55 61.6-1.95L61.6-1.95Q61.5-0.3 60.82 0.55 60.15 1.4 58.95 1.2L58.95 1.2Q58.55 1.15 58.07 0.8 57.6 0.45 57.5 0.1L57.5 0.1Q56.95-2.1 56.95-4.2L56.95-4.2Q56.95-10.25 57.1-16.25L57.1-16.25 57.6-32.55Q57.65-35.2 60.35-35.2L60.35-35.2Q62.2-35.2 63.05-34.5 63.9-33.8 63.8-32.3L63.8-32.3 63.3-27.2Q63.1-25.45 62.8-22.45L62.8-22.45ZM90.54-3.35Q88.99-2.4 86.99-2.4L86.99-2.4Q84.79-2.4 82.77-3.53 80.74-4.65 79.54-6.75 78.34-8.85 78.54-11.55L78.54-11.55 78.79-12.75Q79.09-14.55 79.29-15.4L79.29-15.4Q79.74-17.25 81.09-18 82.44-18.75 84.69-19.2L84.69-19.2Q86.14-19.5 87.54-19.5L87.54-19.5Q91.94-19.5 94.94-16.55L94.94-16.55Q96.54-14.95 96.54-12.65L96.54-12.65Q96.54-10.4 94.89-7.8L94.89-7.8Q92.99-4.85 90.54-3.35L90.54-3.35ZM86.34-16.95Q85.54-15 84.64-12.1L84.64-12.1 84.14-10.6 84.49-10.45Q84.49-10.1 84.52-9.38 84.54-8.65 84.69-8.15L84.69-8.15Q85.24-6.6 85.94-6.25L85.94-6.25Q86.24-6.1 86.82-6.4 87.39-6.7 87.84-7.1L87.84-7.1Q88.54-7.7 90.09-9.6L90.09-9.6Q91.24-10.9 91.24-12.7L91.24-12.7Q91.24-14.25 90.37-15.5 89.49-16.75 87.94-17.2L87.94-17.2Q87.79-17.25 87.39-17.25L87.39-17.25Q86.44-17.25 86.34-16.95L86.34-16.95Z" opacity="1" transform="matrix(1,0,0,1,0,0)" fill="#ffffff" class="wordmark-text-0" data-fill-palette-color="primary" id="text-0"></path></svg></g></svg></g><g transform="matrix(1,0,0,1,0,101.56720178628387)"><svg viewBox="0 0 192 15.999324238712674" height="15.999324238712674" width="192"><g transform="matrix(1,0,0,1,0,0)"><svg width="192" viewBox="2.8600001335144043 -37.5 577.9800415039062 48.16999816894531" height="15.999324238712674" data-palette-color="#89939e"><path d="M21.19-20.46L21.19-14.5 10.03-14.5 10.03 0 2.86 0 2.86-35.55 22.53-35.55 22.53-29.57 10.03-29.57 10.03-20.46 21.19-20.46ZM38.77-26.59L38.69-19.75 36.4-19.95Q33.57-19.95 32.57-17.46L32.57-17.46 32.57 0 25.63 0 25.63-26.42 32.15-26.42 32.35-23.56Q33.98-26.9 36.86-26.9L36.86-26.9Q38.03-26.9 38.77-26.59L38.77-26.59ZM52.44 0.49L52.44 0.49Q47.11 0.49 44.14-2.69 41.16-5.86 41.16-11.77L41.16-11.77 41.16-13.87Q41.16-20.12 43.89-23.51 46.63-26.9 51.73-26.9L51.73-26.9Q56.71-26.9 59.22-23.72 61.74-20.53 61.79-14.28L61.79-14.28 61.79-10.89 48.04-10.89Q48.19-7.96 49.34-6.6 50.48-5.25 52.88-5.25L52.88-5.25Q56.34-5.25 58.66-7.62L58.66-7.62 61.37-3.44Q60.1-1.68 57.69-0.6 55.27 0.49 52.44 0.49ZM48.09-15.72L48.09-15.72 55-15.72 55-16.36Q54.95-18.73 54.22-19.95 53.49-21.17 51.68-21.17 49.87-21.17 49.06-19.87 48.24-18.58 48.09-15.72ZM76.36 0.49L76.36 0.49Q71.04 0.49 68.06-2.69 65.08-5.86 65.08-11.77L65.08-11.77 65.08-13.87Q65.08-20.12 67.81-23.51 70.55-26.9 75.65-26.9L75.65-26.9Q80.63-26.9 83.15-23.72 85.66-20.53 85.71-14.28L85.71-14.28 85.71-10.89 71.97-10.89Q72.11-7.96 73.26-6.6 74.41-5.25 76.8-5.25L76.8-5.25Q80.27-5.25 82.59-7.62L82.59-7.62 85.3-3.44Q84.03-1.68 81.61-0.6 79.19 0.49 76.36 0.49ZM72.01-15.72L72.01-15.72 78.92-15.72 78.92-16.36Q78.87-18.73 78.14-19.95 77.41-21.17 75.6-21.17 73.8-21.17 72.98-19.87 72.16-18.58 72.01-15.72ZM120.35 0L118.44-7.28 108.65-7.28 106.75 0 99.16 0 110.27-35.55 116.83-35.55 128.01 0 120.35 0ZM113.54-25.93L110.22-13.26 116.86-13.26 113.54-25.93ZM129.65-26.42L136.14-26.42 136.34-23.8Q138.68-26.9 142.47-26.9L142.47-26.9Q149.28-26.9 149.47-17.36L149.47-17.36 149.47 0 142.54 0 142.54-16.85Q142.54-19.09 141.87-20.1 141.2-21.12 139.51-21.12L139.51-21.12Q137.63-21.12 136.58-19.19L136.58-19.19 136.58 0 129.65 0 129.65-26.42ZM161.68-26.42L161.68 0 154.74 0 154.74-26.42 161.68-26.42ZM154.43-33.25L154.43-33.25Q154.43-34.86 155.45-35.89 156.48-36.91 158.19-36.91 159.89-36.91 160.92-35.89 161.95-34.86 161.95-33.25L161.95-33.25Q161.95-31.67 160.93-30.62 159.92-29.57 158.19-29.57 156.45-29.57 155.44-30.62 154.43-31.67 154.43-33.25ZM167.05-26.42L173.52-26.42 173.71-23.97Q176.03-26.9 179.84-26.9L179.84-26.9Q183.79-26.9 185.43-23.34L185.43-23.34Q187.7-26.9 191.9-26.9L191.9-26.9Q198.83-26.9 199-17.31L199-17.31 199 0 192.09 0 192.09-16.87Q192.09-19.17 191.46-20.14 190.82-21.12 189.31-21.12L189.31-21.12Q187.38-21.12 186.43-18.75L186.43-18.75 186.48-17.92 186.48 0 179.57 0 179.57-16.82Q179.57-19.09 178.96-20.1 178.35-21.12 176.79-21.12L176.79-21.12Q175-21.12 173.95-19.19L173.95-19.19 173.95 0 167.05 0 167.05-26.42ZM214.77 0.49L214.77 0.49Q209.45 0.49 206.47-2.69 203.49-5.86 203.49-11.77L203.49-11.77 203.49-13.87Q203.49-20.12 206.23-23.51 208.96-26.9 214.06-26.9L214.06-26.9Q219.04-26.9 221.56-23.72 224.07-20.53 224.12-14.28L224.12-14.28 224.12-10.89 210.38-10.89Q210.52-7.96 211.67-6.6 212.82-5.25 215.21-5.25L215.21-5.25Q218.68-5.25 221-7.62L221-7.62 223.71-3.44Q222.44-1.68 220.02-0.6 217.6 0.49 214.77 0.49ZM210.43-15.72L210.43-15.72 217.34-15.72 217.34-16.36Q217.29-18.73 216.55-19.95 215.82-21.17 214.02-21.17 212.21-21.17 211.39-19.87 210.57-18.58 210.43-15.72ZM258.81-35.55L262.99-13.21 266.35-35.55 273.46-35.55 267.14 0 259.93 0 255.78-20.95 251.68 0 244.45 0 238.11-35.55 245.26-35.55 248.61-13.23 252.78-35.55 258.81-35.55ZM284.25-26.42L284.25 0 277.31 0 277.31-26.42 284.25-26.42ZM277-33.25L277-33.25Q277-34.86 278.02-35.89 279.05-36.91 280.76-36.91 282.47-36.91 283.49-35.89 284.52-34.86 284.52-33.25L284.52-33.25Q284.52-31.67 283.5-30.62 282.49-29.57 280.76-29.57 279.02-29.57 278.01-30.62 277-31.67 277-33.25ZM290.71-32.91L297.62-32.91 297.62-26.42 301.16-26.42 301.16-21.22 297.62-21.22 297.62-8.11Q297.62-6.54 298.05-5.96 298.48-5.37 299.7-5.37L299.7-5.37Q300.7-5.37 301.33-5.54L301.33-5.54 301.29-0.17Q299.53 0.49 297.48 0.49L297.48 0.49Q290.79 0.49 290.71-7.18L290.71-7.18 290.71-21.22 287.66-21.22 287.66-26.42 290.71-26.42 290.71-32.91ZM311.68-37.5L311.68-24.1Q313.93-26.9 317.2-26.9L317.2-26.9Q320.81-26.9 322.69-24.37 324.57-21.83 324.6-16.8L324.6-16.8 324.6 0 317.67 0 317.67-16.72Q317.67-19.04 316.94-20.08 316.22-21.12 314.61-21.12L314.61-21.12Q312.73-21.12 311.68-19.38L311.68-19.38 311.68 0 304.77 0 304.77-37.5 311.68-37.5ZM353.18 0L341.42 0 341.42-35.55 352.4-35.55Q357.97-35.55 360.86-33.07 363.75-30.59 363.75-25.81L363.75-25.81Q363.75-23.1 362.56-21.14 361.36-19.19 359.29-18.29L359.29-18.29Q361.68-17.6 362.97-15.54 364.27-13.48 364.27-10.45L364.27-10.45Q364.27-5.27 361.42-2.64 358.58 0 353.18 0L353.18 0ZM353.65-15.45L348.59-15.45 348.59-5.96 353.18-5.96Q355.11-5.96 356.11-7.15 357.11-8.35 357.11-10.55L357.11-10.55Q357.11-15.33 353.65-15.45L353.65-15.45ZM348.59-29.57L348.59-20.68 352.33-20.68Q356.55-20.68 356.55-25.05L356.55-25.05Q356.55-27.47 355.58-28.52 354.6-29.57 352.4-29.57L352.4-29.57 348.59-29.57ZM379.79 0.49L379.79 0.49Q374.47 0.49 371.49-2.69 368.51-5.86 368.51-11.77L368.51-11.77 368.51-13.87Q368.51-20.12 371.25-23.51 373.98-26.9 379.08-26.9L379.08-26.9Q384.06-26.9 386.58-23.72 389.09-20.53 389.14-14.28L389.14-14.28 389.14-10.89 375.4-10.89Q375.54-7.96 376.69-6.6 377.84-5.25 380.23-5.25L380.23-5.25Q383.7-5.25 386.02-7.62L386.02-7.62 388.73-3.44Q387.46-1.68 385.04-0.6 382.62 0.49 379.79 0.49ZM375.45-15.72L375.45-15.72 382.35-15.72 382.35-16.36Q382.31-18.73 381.57-19.95 380.84-21.17 379.03-21.17 377.23-21.17 376.41-19.87 375.59-18.58 375.45-15.72ZM404.74-7.08L404.74-7.08Q404.74-7.96 403.9-8.7 403.06-9.45 400.15-10.72L400.15-10.72Q395.88-12.45 394.28-14.31 392.68-16.16 392.68-18.92L392.68-18.92Q392.68-22.39 395.18-24.65 397.68-26.9 401.81-26.9L401.81-26.9Q406.16-26.9 408.77-24.66 411.38-22.41 411.38-18.63L411.38-18.63 404.47-18.63Q404.47-21.85 401.79-21.85L401.79-21.85Q400.69-21.85 399.98-21.17 399.27-20.48 399.27-19.26L399.27-19.26Q399.27-18.38 400.05-17.71 400.83-17.04 403.74-15.8L403.74-15.8Q407.96-14.23 409.71-12.32 411.45-10.4 411.45-7.35L411.45-7.35Q411.45-3.81 408.79-1.66 406.13 0.49 401.81 0.49L401.81 0.49Q398.91 0.49 396.68-0.65 394.46-1.78 393.2-3.81 391.95-5.83 391.95-8.18L391.95-8.18 398.51-8.18Q398.56-6.37 399.36-5.47 400.15-4.57 401.96-4.57L401.96-4.57Q404.74-4.57 404.74-7.08ZM416.87-32.91L423.78-32.91 423.78-26.42 427.32-26.42 427.32-21.22 423.78-21.22 423.78-8.11Q423.78-6.54 424.21-5.96 424.64-5.37 425.86-5.37L425.86-5.37Q426.86-5.37 427.49-5.54L427.49-5.54 427.44-0.17Q425.68 0.49 423.63 0.49L423.63 0.49Q416.94 0.49 416.87-7.18L416.87-7.18 416.87-21.22 413.82-21.22 413.82-26.42 416.87-26.42 416.87-32.91ZM467.97-20.97L467.97-15.01Q467.97-6.2 463.2-2.2L463.2-2.2 468.11 2.2 463.59 6.35 457.05 0.37 455.17 0.49Q449.14 0.49 445.74-3.6 442.33-7.69 442.31-14.92L442.31-14.92 442.31-20.48Q442.31-27.81 445.7-31.92 449.09-36.04 455.12-36.04L455.12-36.04Q461.01-36.04 464.43-32.08 467.84-28.13 467.97-20.97L467.97-20.97ZM460.76-14.84L460.76-20.53Q460.76-25.39 459.37-27.71 457.98-30.03 455.12-30.03 452.27-30.03 450.9-27.77 449.53-25.51 449.48-20.9L449.48-20.9 449.48-15.01Q449.48-10.13 450.89-7.81 452.29-5.49 455.17-5.49L455.17-5.49Q457.98-5.49 459.36-7.8 460.74-10.11 460.76-14.84L460.76-14.84ZM485.98 0L485.78-2.42Q483.64 0.49 480.02 0.49L480.02 0.49Q476.39 0.49 474.51-2.01 472.63-4.52 472.63-9.3L472.63-9.3 472.63-26.42 479.53-26.42 479.53-9.13Q479.58-5.27 482.1-5.27L482.1-5.27Q484.47-5.27 485.52-7.32L485.52-7.32 485.52-26.42 492.47-26.42 492.47 0 485.98 0ZM516.91 0L509.95 0Q509.66-0.61 509.37-2.05L509.37-2.05Q507.51 0.49 504.34 0.49L504.34 0.49Q501.02 0.49 498.83-1.71 496.65-3.91 496.65-7.4L496.65-7.4Q496.65-11.55 499.3-13.82 501.94-16.09 506.92-16.14L506.92-16.14 509.02-16.14 509.02-18.26Q509.02-20.04 508.41-20.78 507.8-21.51 506.63-21.51L506.63-21.51Q504.04-21.51 504.04-18.48L504.04-18.48 497.13-18.48Q497.13-22.14 499.88-24.52 502.63-26.9 506.83-26.9L506.83-26.9Q511.17-26.9 513.55-24.65 515.93-22.39 515.93-18.19L515.93-18.19 515.93-5.76Q515.98-2.34 516.91-0.42L516.91-0.42 516.91 0ZM505.88-4.93L505.88-4.93Q507.02-4.93 507.83-5.4 508.63-5.86 509.02-6.49L509.02-6.49 509.02-11.99 507.36-11.99Q505.61-11.99 504.59-10.86 503.58-9.74 503.58-7.86L503.58-7.86Q503.58-4.93 505.88-4.93ZM528.19-37.5L528.19 0 521.25 0 521.25-37.5 528.19-37.5ZM540.78-26.42L540.78 0 533.85 0 533.85-26.42 540.78-26.42ZM533.53-33.25L533.53-33.25Q533.53-34.86 534.56-35.89 535.58-36.91 537.29-36.91 539-36.91 540.03-35.89 541.05-34.86 541.05-33.25L541.05-33.25Q541.05-31.67 540.04-30.62 539.02-29.57 537.29-29.57 535.56-29.57 534.54-30.62 533.53-31.67 533.53-33.25ZM547.25-32.91L554.16-32.91 554.16-26.42 557.7-26.42 557.7-21.22 554.16-21.22 554.16-8.11Q554.16-6.54 554.59-5.96 555.01-5.37 556.23-5.37L556.23-5.37Q557.23-5.37 557.87-5.54L557.87-5.54 557.82-0.17Q556.06 0.49 554.01 0.49L554.01 0.49Q547.32 0.49 547.25-7.18L547.25-7.18 547.25-21.22 544.2-21.22 544.2-26.42 547.25-26.42 547.25-32.91ZM566.78-26.42L569.95-11.5 573.47-26.42 580.84-26.42 572.15 3.96Q570.2 10.67 564.8 10.67L564.8 10.67Q563.56 10.67 561.97 10.21L561.97 10.21 561.97 4.81 562.77 4.83Q564.39 4.83 565.2 4.21 566.02 3.59 566.44 2.05L566.44 2.05 566.97 0.27 559.36-26.42 566.78-26.42Z" opacity="1" transform="matrix(1,0,0,1,0,0)" fill="#ffffff" class="slogan-text-1" data-fill-palette-color="secondary" id="text-1"></path></svg></g></svg></g></svg></g></svg></g></svg></g></svg></g></svg></g></svg></g><defs></defs></svg><rect width="320" height="360" fill="none" stroke="none" visibility="hidden"></rect></g></svg></g></svg>